<svg xmlns="http://www.w3.org/2000/svg" width="130" height="40" version="1.0" viewBox="0 0 99 29" zoomAndPan="magnify">
<defs/>
<g fill="#FFF">
<g transform="translate(0 22.21)">
<path d="m2.2344-20.266h7.6406c1.332 0 2.5508 0.21484 3.6562 0.64062 1.1016 0.42969 2.0391 1.0625 2.8125 1.9062 0.76953 0.84375 1.3672 1.9023 1.7969 3.1719 0.42578 1.2617 0.64062 2.7344 0.64062 4.4219 0 1.6797-0.21484 3.1523-0.64062 4.4219-0.42969 1.2734-1.0273 2.3281-1.7969 3.1719-0.77344 0.83594-1.7109 1.4648-2.8125 1.8906-1.1055 0.42969-2.3242 0.64062-3.6562 0.64062h-7.6406zm7.6406 16.344c1.3125 0 2.3438-0.36328 3.0938-1.0938 0.75781-0.73828 1.1406-1.9219 1.1406-3.5469v-3.1406c0-1.625-0.38281-2.8008-1.1406-3.5312-0.75-0.73828-1.7812-1.1094-3.0938-1.1094h-3.2344v12.422z"/>
</g>
<g transform="translate(20.235 22.21)">
<path d="m11-2.5625h-0.14062c-0.13672 0.39844-0.32031 0.77344-0.54688 1.125-0.21875 0.34375-0.50781 0.65234-0.85938 0.92188-0.34375 0.27344-0.75781 0.48047-1.2344 0.625-0.46875 0.15625-1.0117 0.23438-1.625 0.23438-1.5742 0-2.7617-0.51562-3.5625-1.5469-0.80469-1.0391-1.2031-2.5234-1.2031-4.4531v-9.5781h4.2969v9.2031c0 0.92969 0.16016 1.6406 0.48438 2.1406 0.33203 0.5 0.89453 0.75 1.6875 0.75 0.33203 0 0.66016-0.046875 0.98438-0.14062 0.33203-0.09375 0.625-0.23438 0.875-0.42188s0.45312-0.41406 0.60938-0.6875c0.15625-0.26953 0.23438-0.58594 0.23438-0.95312v-9.8906h4.2969v15.234h-4.2969z"/>
</g>
<g transform="translate(37.539 22.21)">
<path d="m13.266 0c-0.77344 0-1.418-0.23828-1.9375-0.71875-0.51172-0.48828-0.83594-1.1406-0.96875-1.9531h-0.17188c-0.23047 0.99219-0.74219 1.7422-1.5312 2.25-0.79297 0.50781-1.7734 0.76562-2.9375 0.76562-1.5312 0-2.7031-0.40625-3.5156-1.2188s-1.2188-1.8828-1.2188-3.2188c0-1.6016 0.58203-2.7969 1.75-3.5781 1.1758-0.78906 2.7695-1.1875 4.7812-1.1875h2.4062v-0.95312c0-0.73828-0.19531-1.3203-0.57812-1.75-0.38672-0.4375-1.0312-0.65625-1.9375-0.65625-0.85547 0-1.5391 0.18359-2.0469 0.54688-0.5 0.36719-0.91406 0.78125-1.2344 1.25l-2.5625-2.2656c0.625-0.90625 1.4062-1.6133 2.3438-2.125 0.9375-0.51953 2.207-0.78125 3.8125-0.78125 2.1641 0 3.7891 0.47656 4.875 1.4219 1.082 0.94922 1.625 2.3359 1.625 4.1562v6.6719h1.4219v3.3438zm-5.9531-2.6406c0.71875 0 1.332-0.15625 1.8438-0.46875 0.50781-0.3125 0.76562-0.8125 0.76562-1.5v-1.8125h-2.0781c-1.6875 0-2.5312 0.57422-2.5312 1.7188v0.4375c0 0.5625 0.17188 0.97656 0.51562 1.2344 0.35156 0.26172 0.84766 0.39062 1.4844 0.39062z"/>
</g>
<g transform="translate(54.058  22.21)">
<path d="m6.2656 0c-1.4688 0-2.5469-0.35156-3.2344-1.0625-0.6875-0.71875-1.0312-1.7578-1.0312-3.125v-17.297h4.2969v18.141h1.9219v3.3438z"/>
</g>
<g transform="translate(62.855 22.21)">
<path d="m4.1562-16.859c-0.875 0-1.5117-0.19531-1.9062-0.59375-0.39844-0.40625-0.59375-0.91406-0.59375-1.5312v-0.64062c0-0.61328 0.19531-1.1172 0.59375-1.5156 0.39453-0.40625 1.0312-0.60938 1.9062-0.60938 0.86328 0 1.4922 0.20312 1.8906 0.60938 0.39453 0.39844 0.59375 0.90234 0.59375 1.5156v0.64062c0 0.61719-0.19922 1.125-0.59375 1.5312-0.39844 0.39844-1.0273 0.59375-1.8906 0.59375zm-2.1562 1.625h4.2969v15.234h-4.2969z"/>
</g>
<g transform="translate(71.158 22.21)">
<path d="m7.3438 0c-1.4922 0-2.6211-0.375-3.3906-1.125-0.76172-0.75781-1.1406-1.8633-1.1406-3.3125v-7.4688h-2.1406v-3.3281h1.0625c0.58203 0 0.97656-0.14062 1.1875-0.42188 0.21875-0.28125 0.32812-0.67969 0.32812-1.2031v-2.5h3.8594v4.125h3.0156v3.3281h-3.0156v8.5625h2.7969v3.3438z"/>
</g>
<g transform="translate(82.277 22.21)">
<path d="m11.328-15.234h4l-5.8594 17.578c-0.38672 1.1875-0.93359 2.0625-1.6406 2.625-0.71094 0.5625-1.7188 0.84375-3.0312 0.84375h-2.6719v-3.3438h2.875l0.51562-1.6875-5.3438-16.016h4.2656l2.2344 7.1094 1.1094 4.4062h0.17188l1.1406-4.4062z"/>
</g>
</g>
</svg>
